<svg width="18" height="22" viewBox="0 0 18 22" fill="none" xmlns="http://www.w3.org/2000/svg">
<g id="Vector">
<g id="Vector-9">
<path fill-rule="evenodd" clip-rule="evenodd" d="M8.99358 4.46675C5.34781 4.55463 2.46247 7.57939 2.54658 11.2252V13.9284C1.5867 13.9773 0.833496 14.7698 0.833496 15.7309C0.833496 16.692 1.5867 17.4846 2.54658 17.5334H6.27175M8.99358 4.46675V1.66675V4.46675ZM8.99358 4.46675C12.6394 4.55463 15.5247 7.57939 15.4406 11.2252V13.9284C16.4005 13.9773 17.1537 14.7698 17.1537 15.7309C17.1537 16.692 16.4005 17.4846 15.4406 17.5334H11.7154M6.27058 17.5334C6.26788 18.2731 6.55374 18.9846 7.06742 19.5167C7.57074 20.0407 8.26589 20.3368 8.99242 20.3368C9.71895 20.3368 10.4141 20.0407 10.9174 19.5167C11.4311 18.9846 11.717 18.2731 11.7143 17.5334M6.26942 17.5334H11.7154H6.26942Z" fill="white"/>
<path d="M9.01166 5.21653C9.42575 5.20655 9.75335 4.86277 9.74337 4.44867C9.73338 4.03458 9.3896 3.70698 8.97551 3.71697L9.01166 5.21653ZM2.54658 11.2252H3.29658C3.29658 11.2195 3.29652 11.2137 3.29638 11.2079L2.54658 11.2252ZM2.54658 13.9284L2.58471 14.6774C2.98359 14.6571 3.29658 14.3278 3.29658 13.9284H2.54658ZM2.54658 17.5334L2.50846 18.2824C2.52116 18.2831 2.53387 18.2834 2.54658 18.2834V17.5334ZM6.27175 18.2834C6.68596 18.2834 7.02175 17.9476 7.02175 17.5334C7.02175 17.1192 6.68596 16.7834 6.27175 16.7834V18.2834ZM8.24358 4.46675C8.24358 4.88096 8.57937 5.21675 8.99358 5.21675C9.4078 5.21675 9.74358 4.88096 9.74358 4.46675H8.24358ZM9.74358 1.66675C9.74358 1.25253 9.4078 0.916748 8.99358 0.916748C8.57937 0.916748 8.24358 1.25253 8.24358 1.66675H9.74358ZM9.01166 3.71697C8.59756 3.70698 8.25378 4.03458 8.2438 4.44867C8.23382 4.86277 8.56142 5.20655 8.97551 5.21653L9.01166 3.71697ZM15.4406 11.2252L14.6908 11.2079C14.6906 11.2137 14.6906 11.2195 14.6906 11.2252H15.4406ZM15.4406 13.9284H14.6906C14.6906 14.3278 15.0036 14.6571 15.4025 14.6774L15.4406 13.9284ZM15.4406 17.5334V18.2834C15.4533 18.2834 15.466 18.2831 15.4787 18.2824L15.4406 17.5334ZM11.7154 16.7834C11.3012 16.7834 10.9654 17.1192 10.9654 17.5334C10.9654 17.9476 11.3012 18.2834 11.7154 18.2834V16.7834ZM7.02058 17.5362C7.0221 17.122 6.68754 16.7849 6.27333 16.7834C5.85912 16.7819 5.52211 17.1165 5.52059 17.5307L7.02058 17.5362ZM7.06742 19.5167L7.60828 18.9972L7.60704 18.9959L7.06742 19.5167ZM10.9174 19.5167L10.3778 18.9959L10.3766 18.9972L10.9174 19.5167ZM12.4642 17.5307C12.4627 17.1165 12.1257 16.7819 11.7115 16.7834C11.2973 16.7849 10.9627 17.122 10.9643 17.5362L12.4642 17.5307ZM6.26942 16.7834C5.8552 16.7834 5.51942 17.1192 5.51942 17.5334C5.51942 17.9476 5.8552 18.2834 6.26942 18.2834V16.7834ZM11.7154 18.2834C12.1296 18.2834 12.4654 17.9476 12.4654 17.5334C12.4654 17.1192 12.1296 16.7834 11.7154 16.7834V18.2834ZM8.97551 3.71697C4.91595 3.81482 1.70312 7.18288 1.79678 11.2425L3.29638 11.2079C3.22181 7.97589 5.77967 5.29444 9.01166 5.21653L8.97551 3.71697ZM1.79658 11.2252V13.9284H3.29658V11.2252H1.79658ZM2.50846 13.1794C1.1497 13.2485 0.0834961 14.3704 0.0834961 15.7309H1.5835C1.5835 15.1692 2.02371 14.706 2.58471 14.6774L2.50846 13.1794ZM0.0834961 15.7309C0.0834961 17.0914 1.1497 18.2133 2.50846 18.2824L2.58471 16.7844C2.02371 16.7558 1.5835 16.2926 1.5835 15.7309H0.0834961ZM2.54658 18.2834H6.27175V16.7834H2.54658V18.2834ZM9.74358 4.46675V1.66675H8.24358V4.46675H9.74358ZM8.97551 5.21653C12.2075 5.29444 14.7654 7.97589 14.6908 11.2079L16.1904 11.2425C16.284 7.18288 13.0712 3.81482 9.01166 3.71697L8.97551 5.21653ZM14.6906 11.2252V13.9284H16.1906V11.2252H14.6906ZM15.4025 14.6774C15.9635 14.706 16.4037 15.1692 16.4037 15.7309H17.9037C17.9037 14.3704 16.8375 13.2485 15.4787 13.1794L15.4025 14.6774ZM16.4037 15.7309C16.4037 16.2926 15.9635 16.7558 15.4025 16.7844L15.4787 18.2824C16.8375 18.2133 17.9037 17.0914 17.9037 15.7309H16.4037ZM15.4406 16.7834H11.7154V18.2834H15.4406V16.7834ZM5.52059 17.5307C5.51717 18.4656 5.87851 19.365 6.52779 20.0376L7.60704 18.9959C7.22898 18.6042 7.01859 18.0805 7.02058 17.5362L5.52059 17.5307ZM6.52655 20.0363C7.17129 20.7075 8.06175 21.0868 8.99242 21.0868V19.5868C8.47002 19.5868 7.97019 19.3739 7.60828 18.9972L6.52655 20.0363ZM8.99242 21.0868C9.92308 21.0868 10.8135 20.7075 11.4583 20.0363L10.3766 18.9972C10.0146 19.3739 9.51482 19.5868 8.99242 19.5868V21.0868ZM11.457 20.0376C12.1063 19.365 12.4677 18.4656 12.4642 17.5307L10.9643 17.5362C10.9662 18.0805 10.7559 18.6042 10.3778 18.9959L11.457 20.0376ZM6.26942 18.2834H11.7154V16.7834H6.26942V18.2834ZM11.7154 16.7834H6.26942V18.2834H11.7154V16.7834Z" fill="#454545"/>
</g>
</g>
</svg>
