<svg width="21" height="22" viewBox="0 0 21 22" fill="none" xmlns="http://www.w3.org/2000/svg">
<g id="Vector">
<path id="Vector-9" d="M10.61 4.7498C11.0242 4.7402 11.3521 4.39672 11.3425 3.98262C11.3329 3.56852 10.9894 3.2406 10.5753 3.2502L10.61 4.7498ZM3.40887 11.2413H4.15887C4.15887 11.2353 4.1588 11.2293 4.15865 11.2233L3.40887 11.2413ZM3.40887 14.1375L3.44553 14.8866C3.84502 14.8671 4.15887 14.5375 4.15887 14.1375H3.40887ZM3.40887 18L3.37221 18.7491C3.38442 18.7497 3.39664 18.75 3.40887 18.75V18ZM7.55977 18.75C7.97398 18.75 8.30977 18.4142 8.30977 18C8.30977 17.5858 7.97398 17.25 7.55977 17.25V18.75ZM9.84267 4C9.84267 4.41421 10.1785 4.75 10.5927 4.75C11.0069 4.75 11.3427 4.41421 11.3427 4H9.84267ZM11.3427 1C11.3427 0.585786 11.0069 0.25 10.5927 0.25C10.1785 0.25 9.84267 0.585786 9.84267 1H11.3427ZM10.61 3.2502C10.1959 3.2406 9.85247 3.56852 9.84287 3.98262C9.83327 4.39672 10.1612 4.7402 10.5753 4.7498L10.61 3.2502ZM17.7765 11.2413L17.0267 11.2233C17.0265 11.2293 17.0265 11.2353 17.0265 11.2413H17.7765ZM17.7765 14.1375H17.0265C17.0265 14.5375 17.3403 14.8671 17.7398 14.8866L17.7765 14.1375ZM17.7765 18V18.75C17.7887 18.75 17.8009 18.7497 17.8131 18.7491L17.7765 18ZM13.6256 17.25C13.2114 17.25 12.8756 17.5858 12.8756 18C12.8756 18.4142 13.2114 18.75 13.6256 18.75V17.25ZM8.30846 18.0029C8.31004 17.5886 7.97553 17.2516 7.56132 17.25C7.14711 17.2484 6.81005 17.5829 6.80847 17.9971L8.30846 18.0029ZM8.44637 20.125L8.97695 19.5949L8.97568 19.5937L8.44637 20.125ZM12.7364 20.125L12.2071 19.5937L12.2058 19.5949L12.7364 20.125ZM14.3743 17.9971C14.3727 17.5829 14.0356 17.2484 13.6214 17.25C13.2072 17.2516 12.8727 17.5886 12.8743 18.0029L14.3743 17.9971ZM7.55717 17.25C7.14296 17.25 6.80717 17.5858 6.80717 18C6.80717 18.4142 7.14296 18.75 7.55717 18.75V17.25ZM13.6256 18.75C14.0398 18.75 14.3756 18.4142 14.3756 18C14.3756 17.5858 14.0398 17.25 13.6256 17.25V18.75ZM10.5753 3.2502C6.12651 3.35332 2.55475 6.91118 2.65909 11.2592L4.15865 11.2233C4.07552 7.75876 6.93396 4.835 10.61 4.7498L10.5753 3.2502ZM2.65887 11.2413V14.1375H4.15887V11.2413H2.65887ZM3.37221 13.3884C1.92908 13.459 0.75 14.6136 0.75 16.0688H2.25C2.25 15.4644 2.7495 14.9207 3.44553 14.8866L3.37221 13.3884ZM0.75 16.0688C0.75 17.524 1.92908 18.6785 3.37221 18.7491L3.44553 17.2509C2.7495 17.2168 2.25 16.6731 2.25 16.0688H0.75ZM3.40887 18.75H7.55977V17.25H3.40887V18.75ZM11.3427 4V1H9.84267V4H11.3427ZM10.5753 4.7498C14.2514 4.835 17.1098 7.75876 17.0267 11.2233L18.5263 11.2592C18.6306 6.91118 15.0588 3.35332 10.61 3.2502L10.5753 4.7498ZM17.0265 11.2413V14.1375H18.5265V11.2413H17.0265ZM17.7398 14.8866C18.4358 14.9207 18.9353 15.4644 18.9353 16.0688H20.4353C20.4353 14.6136 19.2563 13.459 17.8131 13.3884L17.7398 14.8866ZM18.9353 16.0688C18.9353 16.6731 18.4358 17.2168 17.7398 17.2509L17.8131 18.7491C19.2563 18.6785 20.4353 17.524 20.4353 16.0688H18.9353ZM17.7765 17.25H13.6256V18.75H17.7765V17.25ZM6.80847 17.9971C6.80468 18.9944 7.20581 19.9478 7.91706 20.6563L8.97568 19.5937C8.54217 19.1618 8.30623 18.5906 8.30846 18.0029L6.80847 17.9971ZM7.91579 20.6551C8.62047 21.3604 9.58728 21.7537 10.5914 21.7537V20.2537C9.97633 20.2537 9.39396 20.0123 8.97694 19.5949L7.91579 20.6551ZM10.5914 21.7537C11.5955 21.7537 12.5623 21.3604 13.2669 20.6551L12.2058 19.5949C11.7888 20.0123 11.2064 20.2537 10.5914 20.2537V21.7537ZM13.2657 20.6563C13.9769 19.9478 14.3781 18.9944 14.3743 17.9971L12.8743 18.0029C12.8765 18.5906 12.6406 19.1618 12.2071 19.5937L13.2657 20.6563ZM7.55717 18.75H13.6256V17.25H7.55717V18.75Z" fill="#999999"/>
</g>
</svg>
