<svg width="25" height="24" viewBox="0 0 25 24" fill="none" xmlns="http://www.w3.org/2000/svg">
<path d="M16.6251 1C15.4721 1.067 14.1481 1.71 13.3611 2.528C12.6501 3.272 12.0901 4.376 12.3191 5.445C13.5721 5.478 14.8301 4.82 15.5831 3.987C16.2861 3.208 16.8181 2.12 16.6251 1Z" fill="black"/>
<path d="M16.694 5.44409C14.885 5.44409 14.128 6.55509 12.875 6.55509C11.586 6.55509 10.407 5.51309 8.847 5.51309C6.725 5.51409 3.5 7.48009 3.5 12.1111C3.5 16.3241 7.317 21.0001 9.472 21.0001C10.781 21.0131 11.099 20.1761 12.875 20.1671C14.653 20.1541 15.036 21.0111 16.347 21.0001C17.823 20.9891 18.977 19.3681 19.819 18.0831C20.423 17.1631 20.67 16.6921 21.138 15.6521C17.665 14.7721 16.974 9.17109 21.138 8.01309C20.352 6.67209 18.059 5.44409 16.694 5.44409Z" fill="black"/>
</svg>
