<svg width="23" height="23" viewBox="0 0 23 23" fill="none" xmlns="http://www.w3.org/2000/svg">
<g id="Vector">
<path id="Vector-7" d="M11.4303 9.47325C11.4303 8.92096 10.9825 8.47325 10.4303 8.47325C9.87796 8.47325 9.43025 8.92096 9.43025 9.47325H11.4303ZM10.4303 12.7306H9.43025C9.43025 13.2829 9.87796 13.7306 10.4303 13.7306V12.7306ZM13.6395 13.7306C14.1918 13.7306 14.6395 13.2829 14.6395 12.7306C14.6395 12.1783 14.1918 11.7306 13.6395 11.7306V13.7306ZM18.9356 21.7054C19.2562 22.1551 19.8806 22.2599 20.3304 21.9394C20.7801 21.6188 20.8849 20.9944 20.5644 20.5446L18.9356 21.7054ZM17.6246 16.4196C17.3041 15.9699 16.6796 15.8651 16.2299 16.1856C15.7801 16.5062 15.6754 17.1306 15.9959 17.5804L17.6246 16.4196ZM18.3248 0.878822C17.7747 0.830581 17.2896 1.23748 17.2413 1.78765C17.1931 2.33783 17.6 2.82294 18.1502 2.87118L18.3248 0.878822ZM20.1444 4.65747C20.2527 5.19903 20.7795 5.55026 21.3211 5.44196C21.8627 5.33366 22.2139 4.80684 22.1056 4.26528L20.1444 4.65747ZM6.18837 17L6.90535 16.3029L6.90356 16.3011L6.18837 17ZM4.0145 11.6444L5.01455 11.6471L5.01447 11.6371L4.0145 11.6444ZM11.5 4.04612L11.5076 3.04615C11.5025 3.04612 11.4975 3.04612 11.4924 3.04615L11.5 4.04612ZM18.9855 11.6444L17.9855 11.6371C17.9855 11.642 17.9855 11.6469 17.9855 11.6519L18.9855 11.6444ZM11.5 19.244L11.5 20.244L11.5076 20.244L11.5 19.244ZM7.00286 17.5802C7.32329 17.1304 7.21839 16.5059 6.76856 16.1855C6.31873 15.8651 5.69432 15.97 5.37389 16.4198L7.00286 17.5802ZM2.43552 20.5448C2.11509 20.9946 2.21999 21.6191 2.66982 21.9395C3.11964 22.2599 3.74406 22.155 4.06449 21.7052L2.43552 20.5448ZM4.84985 2.87118C5.40002 2.82294 5.80692 2.33783 5.75868 1.78765C5.71044 1.23748 5.22533 0.830581 4.67515 0.878822L4.84985 2.87118ZM0.894415 4.26528C0.786116 4.80684 1.13734 5.33366 1.67891 5.44196C2.22047 5.55026 2.74729 5.19903 2.85559 4.65747L0.894415 4.26528ZM9.43025 9.47325V12.7306H11.4303V9.47325H9.43025ZM10.4303 13.7306H13.6395V11.7306H10.4303V13.7306ZM20.5644 20.5446L17.6246 16.4196L15.9959 17.5804L18.9356 21.7054L20.5644 20.5446ZM18.1502 2.87118C19.1378 2.95778 19.95 3.6853 20.1444 4.65747L22.1056 4.26528C21.737 2.42223 20.1972 1.043 18.3248 0.878822L18.1502 2.87118ZM6.90356 16.3011C5.68812 15.0574 5.00974 13.3861 5.0145 11.6471L3.0145 11.6416C3.00831 13.905 3.89125 16.0802 5.47319 17.6989L6.90356 16.3011ZM5.01447 11.6371C4.98803 8.0242 7.89479 5.07366 11.5076 5.0461L11.4924 3.04615C6.77523 3.08214 2.97999 6.93455 3.01453 11.6517L5.01447 11.6371ZM11.4924 5.0461C15.1052 5.07366 18.012 8.0242 17.9855 11.6371L19.9855 11.6517C20.02 6.93455 16.2248 3.08214 11.5076 3.04615L11.4924 5.0461ZM17.9855 11.6519C18.0126 15.2652 15.1057 18.2165 11.4924 18.244L11.5076 20.244C16.2254 20.208 20.0209 16.3546 19.9855 11.6369L17.9855 11.6519ZM11.5 18.244C9.76916 18.244 8.11192 17.5439 6.90534 16.3029L5.47141 17.6971C7.05454 19.3254 9.22898 20.244 11.5 20.244L11.5 18.244ZM5.37389 16.4198L2.43552 20.5448L4.06449 21.7052L7.00286 17.5802L5.37389 16.4198ZM4.67515 0.878822C2.80279 1.043 1.26298 2.42223 0.894415 4.26528L2.85559 4.65747C3.05 3.6853 3.86222 2.95778 4.84985 2.87118L4.67515 0.878822Z" fill="white"/>
</g>
</svg>
