<svg width="23" height="27" viewBox="0 0 23 27" fill="none" xmlns="http://www.w3.org/2000/svg">
<g id="Vector">
<path id="Vector-18" fill-rule="evenodd" clip-rule="evenodd" d="M17.5 15C17.5 18.3137 14.8137 21 11.5 21C8.18629 21 5.5 18.3137 5.5 15C5.5 11.6863 8.18629 9 11.5 9C13.0913 9 14.6174 9.63214 15.7426 10.7574C16.8679 11.8826 17.5 13.4087 17.5 15Z" stroke="#121212" stroke-width="1.5" stroke-linecap="round" stroke-linejoin="round"/>
<path id="Vector-19" d="M7 5.25C7.41421 5.25 7.75 4.91421 7.75 4.5C7.75 4.08579 7.41421 3.75 7 3.75V5.25ZM16 3.75C15.5858 3.75 15.25 4.08579 15.25 4.5C15.25 4.91421 15.5858 5.25 16 5.25V3.75ZM7 3.75C6.58579 3.75 6.25 4.08579 6.25 4.5C6.25 4.91421 6.58579 5.25 7 5.25V3.75ZM16 5.25C16.4142 5.25 16.75 4.91421 16.75 4.5C16.75 4.08579 16.4142 3.75 16 3.75V5.25ZM7.75 4.5C7.75 4.08579 7.41421 3.75 7 3.75C6.58579 3.75 6.25 4.08579 6.25 4.5H7.75ZM6.25 6C6.25 6.41421 6.58579 6.75 7 6.75C7.41421 6.75 7.75 6.41421 7.75 6H6.25ZM6.25 4.5C6.25 4.91421 6.58579 5.25 7 5.25C7.41421 5.25 7.75 4.91421 7.75 4.5H6.25ZM7.75 1.5C7.75 1.08579 7.41421 0.75 7 0.75C6.58579 0.75 6.25 1.08579 6.25 1.5H7.75ZM16.75 4.5C16.75 4.08579 16.4142 3.75 16 3.75C15.5858 3.75 15.25 4.08579 15.25 4.5H16.75ZM15.25 6C15.25 6.41421 15.5858 6.75 16 6.75C16.4142 6.75 16.75 6.41421 16.75 6H15.25ZM15.25 4.5C15.25 4.91421 15.5858 5.25 16 5.25C16.4142 5.25 16.75 4.91421 16.75 4.5H15.25ZM16.75 1.5C16.75 1.08579 16.4142 0.75 16 0.75C15.5858 0.75 15.25 1.08579 15.25 1.5H16.75ZM11.3935 13.2855C11.3935 12.8713 11.0577 12.5355 10.6435 12.5355C10.2293 12.5355 9.8935 12.8713 9.8935 13.2855H11.3935ZM10.6435 15.8565H9.8935C9.8935 16.2707 10.2293 16.6065 10.6435 16.6065V15.8565ZM13.2145 16.6065C13.6287 16.6065 13.9645 16.2707 13.9645 15.8565C13.9645 15.4423 13.6287 15.1065 13.2145 15.1065V16.6065ZM7 3.75C3.27208 3.75 0.25 6.77208 0.25 10.5H1.75C1.75 7.6005 4.1005 5.25 7 5.25V3.75ZM0.25 10.5V19.5H1.75V10.5H0.25ZM0.25 19.5C0.25 23.2279 3.27208 26.25 7 26.25V24.75C4.1005 24.75 1.75 22.3995 1.75 19.5H0.25ZM7 26.25H16V24.75H7V26.25ZM16 26.25C19.7279 26.25 22.75 23.2279 22.75 19.5H21.25C21.25 22.3995 18.8995 24.75 16 24.75V26.25ZM22.75 19.5V10.5H21.25V19.5H22.75ZM22.75 10.5C22.75 6.77208 19.7279 3.75 16 3.75V5.25C18.8995 5.25 21.25 7.6005 21.25 10.5H22.75ZM7 5.25H16V3.75H7V5.25ZM6.25 4.5V6H7.75V4.5H6.25ZM7.75 4.5V1.5H6.25V4.5H7.75ZM15.25 4.5V6H16.75V4.5H15.25ZM16.75 4.5V1.5H15.25V4.5H16.75ZM9.8935 13.2855V15.8565H11.3935V13.2855H9.8935ZM10.6435 16.6065H13.2145V15.1065H10.6435V16.6065Z" fill="#121212"/>
</g>
</svg>
