<svg width="23" height="24" viewBox="0 0 23 24" fill="none" xmlns="http://www.w3.org/2000/svg">
<g id="Vector">
<path id="Vector-28" fill-rule="evenodd" clip-rule="evenodd" d="M2.29514 3.54293C3.61514 2.15243 4.08164 1.76243 4.64414 1.58093C5.03342 1.47892 5.44169 1.47326 5.83364 1.56443C6.34964 1.71443 6.48614 1.82843 8.17814 3.51443C9.66464 4.99493 9.81314 5.15543 9.95564 5.44493C10.2281 5.95309 10.2707 6.5534 10.0726 7.09493C9.92264 7.50743 9.70964 7.78043 8.80814 8.68493L8.22014 9.27443C8.06573 9.43135 8.02944 9.66965 8.13014 9.86543C9.43655 12.0942 11.29 13.9528 13.5151 15.2654C13.7713 15.4026 14.0867 15.3583 14.2951 15.1559L14.8606 14.5994C15.2102 14.2412 15.5803 13.9036 15.9691 13.5884C16.5799 13.2134 17.3408 13.18 17.9821 13.4999C18.2956 13.6499 18.3991 13.7429 19.9321 15.2729C21.5131 16.8494 21.5581 16.8989 21.7321 17.2604C22.0596 17.8588 22.0562 18.5836 21.7231 19.1789C21.5536 19.5149 21.4501 19.6364 20.5606 20.5454C20.0236 21.0944 19.5181 21.5954 19.4371 21.6689C18.7034 22.2765 17.7619 22.5745 16.8121 22.4999C15.0744 22.3415 13.3925 21.8045 11.8846 20.9264C8.54434 19.1567 5.70075 16.5782 3.61364 13.4264C3.15906 12.7668 2.75491 12.0739 2.40464 11.3534C1.46502 9.74298 0.979793 7.90783 1.00064 6.04343C1.07238 5.06807 1.54013 4.16455 2.29514 3.54293Z" stroke="#121212" stroke-width="1.5" stroke-linecap="round" stroke-linejoin="round"/>
</g>
</svg>
