<svg width="30" height="30" viewBox="0 0 30 30" fill="none" xmlns="http://www.w3.org/2000/svg">
<g id="&#236;&#158;&#165;&#235;&#176;&#148;&#234;&#181;&#172;&#235;&#139;&#136; &#236;&#149;&#132;&#236;&#157;&#180;&#236;&#189;&#152;">
<path id="Vector" d="M27.2775 9.28877C27.1625 9.12261 27.009 8.98679 26.83 8.89296C26.6511 8.79913 26.4521 8.75008 26.25 8.75002H9.16625L7.72375 5.28751C7.53517 4.83115 7.21503 4.44124 6.8041 4.16743C6.39317 3.89362 5.91004 3.74832 5.41625 3.75001H2.5V6.25001H5.41625L11.3462 20.4813C11.4412 20.709 11.6015 20.9035 11.8068 21.0403C12.0121 21.1771 12.2533 21.25 12.5 21.25H22.5C23.0212 21.25 23.4875 20.9263 23.6712 20.44L27.4212 10.44C27.4921 10.2508 27.5161 10.0472 27.491 9.8467C27.466 9.6462 27.3927 9.45475 27.2775 9.28877Z" fill="#999999"/>
<path id="Vector_2" d="M13.125 26.25C14.1605 26.25 15 25.4105 15 24.375C15 23.3395 14.1605 22.5 13.125 22.5C12.0895 22.5 11.25 23.3395 11.25 24.375C11.25 25.4105 12.0895 26.25 13.125 26.25Z" fill="#999999"/>
<path id="Vector_3" d="M21.875 26.25C22.9105 26.25 23.75 25.4105 23.75 24.375C23.75 23.3395 22.9105 22.5 21.875 22.5C20.8395 22.5 20 23.3395 20 24.375C20 25.4105 20.8395 26.25 21.875 26.25Z" fill="#999999"/>
</g>
</svg>
