<svg width="16" height="17" viewBox="0 0 16 17" fill="none" xmlns="http://www.w3.org/2000/svg">
<g id="fluent:eye-16-regular">
<path id="Vector" d="M2.98388 9.125V9.128C2.96704 9.19151 2.93785 9.25109 2.89797 9.30331C2.85809 9.35553 2.80831 9.39938 2.75147 9.43235C2.69463 9.46532 2.63185 9.48677 2.56672 9.49546C2.50159 9.50415 2.43538 9.49991 2.37188 9.483C1.94088 9.369 2.01688 8.872 2.01688 8.872L2.03488 8.81C2.03488 8.81 2.06088 8.726 2.08188 8.665C2.33851 7.94549 2.71628 7.27516 3.19888 6.683C4.09588 5.589 5.60489 4.5 7.99989 4.5C10.3949 4.5 11.9039 5.589 12.8019 6.683C13.2845 7.27516 13.6623 7.94549 13.9189 8.665C13.9404 8.72683 13.9604 8.78919 13.9789 8.852L13.9819 8.865V8.869L13.9829 8.871C14.0146 8.99827 13.995 9.1329 13.9284 9.24588C13.8618 9.35886 13.7535 9.44114 13.6267 9.47498C13.5 9.50883 13.3651 9.49153 13.251 9.42681C13.1369 9.36209 13.0528 9.25513 13.0169 9.129L13.0159 9.125L13.0079 9.1L12.9729 8.991C12.7549 8.38352 12.4354 7.81748 12.0279 7.317C11.2859 6.412 10.0449 5.5 7.99989 5.5C5.95489 5.5 4.71488 6.412 3.97188 7.317C3.56439 7.81748 3.24484 8.38352 3.02688 8.991L2.99189 9.1L2.98388 9.125ZM7.99989 7.5C7.33684 7.5 6.70096 7.76339 6.23212 8.23223C5.76328 8.70107 5.49988 9.33696 5.49988 10C5.49988 10.663 5.76328 11.2989 6.23212 11.7678C6.70096 12.2366 7.33684 12.5 7.99989 12.5C8.66293 12.5 9.29881 12.2366 9.76765 11.7678C10.2365 11.2989 10.4999 10.663 10.4999 10C10.4999 9.33696 10.2365 8.70107 9.76765 8.23223C9.29881 7.76339 8.66293 7.5 7.99989 7.5ZM6.49989 10C6.49989 9.60218 6.65792 9.22064 6.93922 8.93934C7.22053 8.65804 7.60206 8.5 7.99989 8.5C8.39771 8.5 8.77924 8.65804 9.06055 8.93934C9.34185 9.22064 9.49989 9.60218 9.49989 10C9.49989 10.3978 9.34185 10.7794 9.06055 11.0607C8.77924 11.342 8.39771 11.5 7.99989 11.5C7.60206 11.5 7.22053 11.342 6.93922 11.0607C6.65792 10.7794 6.49989 10.3978 6.49989 10Z" fill="#999999"/>
</g>
</svg>
