<svg width="16" height="17" viewBox="0 0 16 17" fill="none" xmlns="http://www.w3.org/2000/svg">
<g id="fluent:eye-off-16-regular">
<path id="Vector" d="M10.1201 11.3269L14.1461 15.3539C14.1926 15.4004 14.2478 15.4373 14.3086 15.4624C14.3693 15.4876 14.4344 15.5005 14.5001 15.5005C14.5659 15.5005 14.631 15.4876 14.6917 15.4624C14.7525 15.4373 14.8077 15.4004 14.8541 15.3539C14.9006 15.3074 14.9375 15.2522 14.9627 15.1915C14.9878 15.1307 15.0008 15.0656 15.0008 14.9999C15.0008 14.9342 14.9878 14.8691 14.9627 14.8083C14.9375 14.7476 14.9006 14.6924 14.8541 14.6459L1.85414 1.6459C1.80766 1.59941 1.75247 1.56253 1.69173 1.53738C1.63099 1.51222 1.56589 1.49927 1.50014 1.49927C1.4344 1.49927 1.3693 1.51222 1.30856 1.53738C1.24782 1.56253 1.19263 1.59941 1.14614 1.6459C1.09966 1.69239 1.06278 1.74758 1.03762 1.80832C1.01246 1.86906 0.999512 1.93416 0.999512 1.9999C0.999512 2.06564 1.01246 2.13074 1.03762 2.19148C1.06278 2.25222 1.09966 2.30741 1.14614 2.3539L4.37614 5.5839C3.93663 5.89544 3.54107 6.26476 3.20014 6.6819C2.71754 7.27406 2.33976 7.94439 2.08314 8.6639C2.06214 8.7249 2.03614 8.8089 2.03614 8.8089L2.01814 8.8709C2.01814 8.8709 1.94214 9.3679 2.37314 9.4819C2.50124 9.51576 2.63754 9.49739 2.7521 9.43082C2.86666 9.36426 2.95012 9.25495 2.98414 9.1269L2.98514 9.1239L2.99314 9.0989L3.02814 8.9899C3.2461 8.38242 3.56564 7.81638 3.97314 7.3159C4.29418 6.92281 4.67319 6.58089 5.09714 6.3019L6.67514 7.8799C6.35671 8.07949 6.08736 8.3483 5.88715 8.66634C5.68693 8.98438 5.561 9.34347 5.51871 9.7169C5.47642 10.0903 5.51887 10.4685 5.64289 10.8232C5.76691 11.178 5.96932 11.5002 6.23507 11.766C6.50081 12.0317 6.82304 12.2341 7.1778 12.3582C7.53256 12.4822 7.91072 12.5246 8.28415 12.4823C8.65757 12.44 9.01666 12.3141 9.3347 12.1139C9.65275 11.9137 9.92156 11.6443 10.1211 11.3259M9.38114 10.5859C9.28527 10.812 9.13538 11.011 8.94461 11.1656C8.75384 11.3202 8.52804 11.4256 8.28702 11.4726C8.04601 11.5195 7.79715 11.5066 7.5623 11.4349C7.32745 11.3632 7.11379 11.235 6.94008 11.0614C6.76636 10.8879 6.6379 10.6744 6.56598 10.4396C6.49406 10.2048 6.48088 9.95598 6.52758 9.71492C6.57429 9.47386 6.67946 9.24795 6.83387 9.05702C6.98827 8.8661 7.18718 8.716 7.41314 8.6199L9.38114 10.5859ZM6.32014 4.6999L7.17414 5.5539C7.43414 5.5179 7.70948 5.4999 8.00014 5.4999C10.0441 5.4999 11.2861 6.4119 12.0281 7.3169C12.4356 7.81738 12.7552 8.38342 12.9731 8.9909C12.9898 9.03957 13.0015 9.0759 13.0081 9.0999L13.0161 9.1249V9.1279L13.0171 9.1289C13.0541 9.2537 13.1384 9.35915 13.2519 9.42284C13.3654 9.48653 13.4993 9.50343 13.6251 9.46997C13.7509 9.4365 13.8586 9.3553 13.9255 9.24362C13.9924 9.13194 14.013 8.99858 13.9831 8.8719V8.8689L13.9821 8.8649L13.9781 8.8519C13.9612 8.78862 13.9412 8.72621 13.9181 8.6649C13.6615 7.94539 13.2837 7.27506 12.8011 6.6829C11.9051 5.5889 10.3961 4.4999 8.00214 4.4999C7.38414 4.4999 6.82514 4.5719 6.32114 4.6989" fill="#999999"/>
</g>
</svg>
