<svg width="16" height="17" viewBox="0 0 16 17" fill="none" xmlns="http://www.w3.org/2000/svg">
<g id="fluent:eye-off-16-regular">
<path id="Vector" d="M10.1199 11.3269L14.1459 15.3539C14.1924 15.4004 14.2476 15.4373 14.3083 15.4624C14.3691 15.4876 14.4342 15.5005 14.4999 15.5005C14.5656 15.5005 14.6307 15.4876 14.6915 15.4624C14.7522 15.4373 14.8074 15.4004 14.8539 15.3539C14.9004 15.3074 14.9373 15.2522 14.9624 15.1915C14.9876 15.1307 15.0005 15.0656 15.0005 14.9999C15.0005 14.9342 14.9876 14.8691 14.9624 14.8083C14.9373 14.7476 14.9004 14.6924 14.8539 14.6459L1.8539 1.6459C1.80741 1.59941 1.75222 1.56253 1.69148 1.53738C1.63074 1.51222 1.56564 1.49927 1.4999 1.49927C1.43416 1.49927 1.36906 1.51222 1.30832 1.53738C1.24758 1.56253 1.19239 1.59941 1.1459 1.6459C1.09941 1.69239 1.06253 1.74758 1.03738 1.80832C1.01222 1.86906 0.999268 1.93416 0.999268 1.9999C0.999268 2.06564 1.01222 2.13074 1.03738 2.19148C1.06253 2.25222 1.09941 2.30741 1.1459 2.3539L4.3759 5.5839C3.93638 5.89544 3.54083 6.26476 3.1999 6.6819C2.7173 7.27406 2.33952 7.94439 2.0829 8.6639C2.0619 8.7249 2.0359 8.8089 2.0359 8.8089L2.0179 8.8709C2.0179 8.8709 1.9419 9.3679 2.3729 9.4819C2.501 9.51576 2.63729 9.49739 2.75185 9.43082C2.86642 9.36426 2.94987 9.25495 2.9839 9.1269L2.9849 9.1239L2.9929 9.0989L3.0279 8.9899C3.24586 8.38242 3.5654 7.81638 3.9729 7.3159C4.29393 6.92281 4.67294 6.58089 5.0969 6.3019L6.6749 7.8799C6.35646 8.07949 6.08712 8.3483 5.88691 8.66634C5.68669 8.98438 5.56075 9.34347 5.51847 9.7169C5.47618 10.0903 5.51862 10.4685 5.64265 10.8232C5.76667 11.178 5.96908 11.5002 6.23482 11.766C6.50056 12.0317 6.8228 12.2341 7.17756 12.3582C7.53232 12.4822 7.91047 12.5246 8.2839 12.4823C8.65733 12.44 9.01642 12.3141 9.33446 12.1139C9.6525 11.9137 9.92131 11.6443 10.1209 11.3259M9.3809 10.5859C9.28503 10.812 9.13513 11.011 8.94436 11.1656C8.7536 11.3202 8.52779 11.4256 8.28678 11.4726C8.04576 11.5195 7.79691 11.5066 7.56206 11.4349C7.32721 11.3632 7.11355 11.235 6.93983 11.0614C6.76612 10.8879 6.63766 10.6744 6.56574 10.4396C6.49382 10.2048 6.48063 9.95598 6.52734 9.71492C6.57405 9.47386 6.67922 9.24795 6.83362 9.05702C6.98803 8.8661 7.18694 8.716 7.4129 8.6199L9.3809 10.5859ZM6.3199 4.6999L7.1739 5.5539C7.4339 5.5179 7.70923 5.4999 7.9999 5.4999C10.0439 5.4999 11.2859 6.4119 12.0279 7.3169C12.4354 7.81738 12.7549 8.38342 12.9729 8.9909C12.9896 9.03957 13.0012 9.0759 13.0079 9.0999L13.0159 9.1249V9.1279L13.0169 9.1289C13.0539 9.2537 13.1381 9.35915 13.2516 9.42284C13.3652 9.48653 13.499 9.50343 13.6248 9.46997C13.7506 9.4365 13.8584 9.3553 13.9253 9.24362C13.9921 9.13194 14.0128 8.99858 13.9829 8.8719V8.8689L13.9819 8.8649L13.9779 8.8519C13.961 8.78862 13.9409 8.72621 13.9179 8.6649C13.6613 7.94539 13.2835 7.27506 12.8009 6.6829C11.9049 5.5889 10.3959 4.4999 8.0019 4.4999C7.3839 4.4999 6.8249 4.5719 6.3209 4.6989" fill="#999999"/>
</g>
</svg>
