<svg width="20" height="20" viewBox="0 0 20 20" fill="none" xmlns="http://www.w3.org/2000/svg">
<g id="Vector">
<path id="vetor" d="M9.45849 19.278C9.74515 19.577 10.2199 19.587 10.5189 19.3004C10.8179 19.0137 10.8279 18.5389 10.5413 18.2399L9.45849 19.278ZM2.94237 11.3977L2.39666 11.9123L2.40099 11.9168L2.94237 11.3977ZM2.94237 2.87397L2.41276 2.34292C2.40732 2.34835 2.40195 2.35386 2.39668 2.35946L2.94237 2.87397ZM9.57791 2.83401C9.92034 3.06705 10.3869 2.97837 10.6199 2.63593C10.853 2.2935 10.7643 1.82698 10.4218 1.59393L9.57791 2.83401ZM9.45846 18.24C9.17182 18.539 9.18184 19.0137 9.48085 19.3004C9.77986 19.587 10.2546 19.577 10.5413 19.278L9.45846 18.24ZM14.6275 15.0155C14.9142 14.7165 14.9041 14.2417 14.6051 13.9551C14.3061 13.6684 13.8314 13.6784 13.5447 13.9775L14.6275 15.0155ZM9.45849 18.2399C9.17183 18.5389 9.18183 19.0137 9.48083 19.3004C9.77982 19.587 10.2546 19.577 10.5413 19.278L9.45849 18.2399ZM17.0574 11.3977L17.5988 11.9168L17.6031 11.9122L17.0574 11.3977ZM17.0574 2.87397L17.6031 2.35946C17.5978 2.35386 17.5924 2.34835 17.587 2.34292L17.0574 2.87397ZM9.57791 1.59393C9.23547 1.82698 9.14679 2.2935 9.37983 2.63593C9.61288 2.97837 10.0794 3.06705 10.4218 2.83401L9.57791 1.59393ZM9.45846 19.278C9.74511 19.577 10.2199 19.587 10.5189 19.3004C10.8179 19.0137 10.8279 18.539 10.5413 18.24L9.45846 19.278ZM6.45503 13.9775C6.16838 13.6784 5.69361 13.6684 5.3946 13.9551C5.09559 14.2417 5.08557 14.7165 5.37221 15.0155L6.45503 13.9775ZM10.3984 1.57861C10.0475 1.35852 9.58461 1.46455 9.36451 1.81545C9.14441 2.16635 9.25045 2.62923 9.60135 2.84933L10.3984 1.57861ZM11.1149 3.12272L10.573 3.64122L10.5733 3.64157L11.1149 3.12272ZM12.0583 5.19157C12.3449 5.49067 12.8196 5.50084 13.1187 5.21428C13.4178 4.92773 13.428 4.45297 13.1414 4.15387L12.0583 5.19157ZM10.5413 18.2399L3.48375 10.8787L2.40099 11.9168L9.45849 19.278L10.5413 18.2399ZM3.48806 10.8832C1.50398 8.7789 1.50398 5.49279 3.48806 3.38848L2.39668 2.35946C-0.132227 5.04161 -0.132227 9.23008 2.39668 11.9122L3.48806 10.8832ZM3.47198 3.40502C5.1068 1.77463 7.66914 1.53501 9.57791 2.83401L10.4218 1.59393C7.91812 -0.109952 4.55713 0.204359 2.41276 2.34292L3.47198 3.40502ZM10.5413 19.278L14.6275 15.0155L13.5447 13.9775L9.45846 18.24L10.5413 19.278ZM10.5413 19.278L17.5988 11.9168L16.516 10.8787L9.45849 18.2399L10.5413 19.278ZM17.6031 11.9122C20.132 9.23008 20.132 5.04161 17.6031 2.35946L16.5117 3.38848C18.4958 5.49279 18.4958 8.7789 16.5117 10.8832L17.6031 11.9122ZM17.587 2.34292C15.4426 0.204359 12.0816 -0.109952 9.57791 1.59393L10.4218 2.83401C12.3306 1.53501 14.8929 1.77463 16.5278 3.40502L17.587 2.34292ZM10.5413 18.24L6.45503 13.9775L5.37221 15.0155L9.45846 19.278L10.5413 18.24ZM9.60135 2.84933C9.95665 3.07219 10.283 3.33818 10.573 3.64122L11.6568 2.60422C11.2812 2.21174 10.8586 1.86725 10.3984 1.57861L9.60135 2.84933ZM10.5733 3.64157L12.0583 5.19157L13.1414 4.15387L11.6564 2.60387L10.5733 3.64157Z" fill="#999999"/>
</g>
</svg>
