<svg width="23" height="24" viewBox="0 0 23 24" fill="none" xmlns="http://www.w3.org/2000/svg">
<g id="Vector">
<g id="Group_1622">
<path id="Vector-61" fill-rule="evenodd" clip-rule="evenodd" d="M1 10.5V13.5C1 18.4706 5.02944 22.5 10 22.5H13C17.9706 22.5 22 18.4706 22 13.5V10.5C22 5.52944 17.9706 1.5 13 1.5H10C5.02944 1.5 1 5.52944 1 10.5Z" stroke="#121212" stroke-width="1.5" stroke-linecap="round" stroke-linejoin="round"/>
<path id="Vector-62" d="M11.5 12V18" stroke="#121212" stroke-width="1.5" stroke-linecap="round"/>
<g id="Vector-63">
<path id="Path" d="M11.5 8.25C11.0865 8.25 10.75 7.91355 10.75 7.5C10.75 7.08645 11.0865 6.75 11.5 6.75C11.9136 6.75 12.25 7.08645 12.25 7.5C12.25 7.91355 11.9136 8.25 11.5 8.25Z" fill="#121212"/>
<path id="Path_2" d="M11.5 6C12.3284 6 13 6.67158 13 7.5C13 8.32842 12.3284 9 11.5 9C10.6716 9 10 8.32842 10 7.5C10 6.67158 10.6716 6 11.5 6Z" fill="#121212"/>
</g>
</g>
</g>
</svg>
