<svg width="19" height="18" viewBox="0 0 19 18" fill="none" xmlns="http://www.w3.org/2000/svg">
<g id="Vector">
<g id="vetor">
<path fill-rule="evenodd" clip-rule="evenodd" d="M9.75004 17.175L3.16304 10.3045C1.05698 8.07078 1.05698 4.58264 3.16304 2.34896C4.92666 0.590114 7.69088 0.331611 9.75004 1.73296M9.75004 17.175L13.5639 13.1966L9.75004 17.175ZM9.75004 17.175L16.337 10.3045C18.4431 8.07078 18.4431 4.58264 16.337 2.34896C14.5734 0.590114 11.8092 0.331611 9.75004 1.73296M9.75004 17.175L5.93621 13.1966L9.75004 17.175ZM9.75004 1.73296C10.1306 1.97166 10.4801 2.25655 10.7907 2.58112L12.1767 4.02779" fill="white"/>
<path d="M9.20866 17.694C9.49532 17.993 9.97009 18.003 10.2691 17.7163C10.5681 17.4297 10.5781 16.9549 10.2914 16.6559L9.20866 17.694ZM3.16304 10.3045L2.61733 10.819L2.62166 10.8235L3.16304 10.3045ZM3.16304 2.34896L2.63343 1.81791C2.62799 1.82334 2.62263 1.82885 2.61735 1.83445L3.16304 2.34896ZM9.32808 2.353C9.67051 2.58604 10.137 2.49736 10.3701 2.15492C10.6031 1.81248 10.5144 1.34596 10.172 1.11292L9.32808 2.353ZM9.20863 16.6559C8.92199 16.9549 8.93201 17.4297 9.23102 17.7164C9.53003 18.003 10.0048 17.993 10.2914 17.694L9.20863 16.6559ZM14.1053 13.7156C14.3919 13.4166 14.3819 12.9419 14.0829 12.6552C13.7839 12.3686 13.3091 12.3786 13.0225 12.6776L14.1053 13.7156ZM9.20866 16.6559C8.922 16.9549 8.932 17.4297 9.231 17.7163C9.52999 18.003 10.0048 17.993 10.2914 17.694L9.20866 16.6559ZM16.337 10.3045L16.8784 10.8235L16.8827 10.819L16.337 10.3045ZM16.337 2.34896L16.8827 1.83445C16.8775 1.82885 16.8721 1.82334 16.8667 1.81791L16.337 2.34896ZM9.32808 1.11292C8.98564 1.34596 8.89696 1.81248 9.13 2.15492C9.36305 2.49736 9.82957 2.58604 10.172 2.353L9.32808 1.11292ZM9.20864 17.694C9.49528 17.993 9.97005 18.003 10.2691 17.7164C10.5681 17.4297 10.5781 16.9549 10.2914 16.6559L9.20864 17.694ZM6.47761 12.6776C6.19097 12.3786 5.7162 12.3686 5.41719 12.6552C5.11818 12.9419 5.10816 13.4166 5.3948 13.7156L6.47761 12.6776ZM10.1486 1.0976C9.79766 0.877502 9.33478 0.983537 9.11468 1.33444C8.89458 1.68533 9.00062 2.14822 9.35152 2.36832L10.1486 1.0976ZM10.7907 2.58112L10.2488 3.09963L10.2491 3.09998L10.7907 2.58112ZM11.6351 4.54664C11.9217 4.84574 12.3965 4.85591 12.6956 4.56936C12.9947 4.2828 13.0048 3.80804 12.7183 3.50894L11.6351 4.54664ZM10.2914 16.6559L3.70442 9.78541L2.62166 10.8235L9.20866 17.694L10.2914 16.6559ZM3.70873 9.78995C1.87508 7.84519 1.87508 4.80823 3.70873 2.86347L2.61735 1.83445C0.238878 4.35705 0.238878 8.29637 2.61735 10.819L3.70873 9.78995ZM3.69265 2.88001C5.2015 1.37525 7.56639 1.15409 9.32808 2.353L10.172 1.11292C7.81538 -0.490868 4.65183 -0.195022 2.63343 1.81791L3.69265 2.88001ZM10.2914 17.694L14.1053 13.7156L13.0225 12.6776L9.20863 16.6559L10.2914 17.694ZM10.2914 17.694L16.8784 10.8235L15.7957 9.78541L9.20866 16.6559L10.2914 17.694ZM16.8827 10.819C19.2612 8.29637 19.2612 4.35705 16.8827 1.83445L15.7914 2.86347C17.625 4.80823 17.625 7.84519 15.7914 9.78995L16.8827 10.819ZM16.8667 1.81791C14.8482 -0.195022 11.6847 -0.490868 9.32808 1.11292L10.172 2.353C11.9337 1.15409 14.2986 1.37525 15.8074 2.88001L16.8667 1.81791ZM10.2914 16.6559L6.47761 12.6776L5.3948 13.7156L9.20864 17.694L10.2914 16.6559ZM9.35152 2.36832C9.67964 2.57413 9.98103 2.81977 10.2488 3.09963L11.3326 2.06262C10.9793 1.69333 10.5815 1.36919 10.1486 1.0976L9.35152 2.36832ZM10.2491 3.09998L11.6351 4.54664L12.7183 3.50894L11.3323 2.06227L10.2491 3.09998Z" fill="#454545"/>
</g>
</g>
</svg>
