<svg width="23" height="24" viewBox="0 0 23 24" fill="none" xmlns="http://www.w3.org/2000/svg">
<g id="Vector">
<path id="Vector-8" d="M6.9289 17.1424C7.34084 17.099 7.63959 16.7299 7.5962 16.318C7.5528 15.906 7.18368 15.6073 6.77175 15.6507L6.9289 17.1424ZM1.96933 17.931L1.60697 17.2744C1.58916 17.2842 1.57176 17.2948 1.55481 17.306L1.96933 17.931ZM1.31533 20.064L0.735076 20.5392C0.760309 20.57 0.787957 20.5988 0.817756 20.6252L1.31533 20.064ZM5.17783 21.8505L5.34423 21.1192C5.32407 21.1146 5.30373 21.1109 5.28326 21.108L5.17783 21.8505ZM11.5003 22.5L11.5147 21.7502C11.5052 21.75 11.4956 21.75 11.4861 21.7502L11.5003 22.5ZM17.8228 21.852L17.7174 21.1095C17.697 21.1124 17.6767 21.1161 17.6566 21.1207L17.8228 21.852ZM21.6853 20.0655L22.1829 20.6267C22.2127 20.6003 22.2403 20.5715 22.2656 20.5407L21.6853 20.0655ZM21.0313 17.9325L21.4458 17.3075C21.429 17.2963 21.4116 17.2858 21.3939 17.276L21.0313 17.9325ZM16.2291 15.6507C15.8172 15.6072 15.448 15.9058 15.4045 16.3178C15.361 16.7297 15.6596 17.0989 16.0716 17.1424L16.2291 15.6507ZM11.5003 15.9405L10.984 16.4845C11.2734 16.7592 11.7272 16.7592 12.0166 16.4845L11.5003 15.9405ZM7.04533 11.712L7.56168 11.168L7.55547 11.1623L7.04533 11.712ZM7.04533 3.25204L7.55547 3.80182L7.55622 3.80112L7.04533 3.25204ZM15.9553 3.25204L15.4444 3.80112L15.4452 3.80182L15.9553 3.25204ZM15.9553 11.712L15.4452 11.1622L15.439 11.1681L15.9553 11.712ZM11.5003 9.75004L11.4872 10.5L11.4938 10.5L11.5003 9.75004ZM9.47248 7.66146L10.2224 7.6705L9.47248 7.66146ZM11.5501 5.6224L11.5551 4.87242L11.5501 5.6224ZM13.6003 7.68904L14.3503 7.69658L14.3503 7.69001L13.6003 7.68904ZM6.77175 15.6507C4.95901 15.8416 3.20288 16.3937 1.60697 17.2744L2.33168 18.5877C3.75222 17.8038 5.31537 17.3124 6.9289 17.1424L6.77175 15.6507ZM1.55481 17.306C0.984265 17.6844 0.512388 18.1629 0.329033 18.7608C0.129762 19.4106 0.319826 20.0322 0.735076 20.5392L1.89558 19.5888C1.72733 19.3834 1.74114 19.2722 1.76312 19.2005C1.80101 19.077 1.94789 18.8452 2.38385 18.5561L1.55481 17.306ZM0.817756 20.6252C2.01224 21.6843 3.49185 22.3687 5.07239 22.5931L5.28326 21.108C3.99407 20.9249 2.7872 20.3667 1.8129 19.5029L0.817756 20.6252ZM5.01143 22.5818C7.14408 23.0671 9.3278 23.2914 11.5146 23.2499L11.4861 21.7502C9.4208 21.7894 7.3584 21.5775 5.34423 21.1192L5.01143 22.5818ZM11.4859 23.2499C13.6726 23.2919 15.8563 23.0681 17.9891 22.5834L17.6566 21.1207C15.6424 21.5785 13.58 21.7899 11.5147 21.7502L11.4859 23.2499ZM17.9283 22.5946C19.5088 22.3702 20.9884 21.6858 22.1829 20.6267L21.1878 19.5044C20.2135 20.3682 19.0066 20.9264 17.7174 21.1095L17.9283 22.5946ZM22.2656 20.5407C22.6808 20.0337 22.8709 19.4121 22.6716 18.7623C22.4883 18.1644 22.0164 17.6859 21.4458 17.3075L20.6168 18.5576C21.0528 18.8467 21.1996 19.0785 21.2375 19.202C21.2595 19.2737 21.2733 19.3849 21.1051 19.5903L22.2656 20.5407ZM21.3939 17.276C19.7981 16.3948 18.0419 15.8421 16.2291 15.6507L16.0716 17.1424C17.6852 17.3128 19.2483 17.8047 20.6688 18.5891L21.3939 17.276ZM12.0166 15.3966L7.56165 11.1681L6.52901 12.256L10.984 16.4845L12.0166 15.3966ZM7.55547 11.1623C6.53165 10.2123 5.94984 8.87871 5.94984 7.48204H4.44984C4.44984 9.296 5.20548 11.028 6.53519 12.2618L7.55547 11.1623ZM5.94984 7.48204C5.94984 6.08536 6.53165 4.75182 7.55547 3.80182L6.53519 2.70226C5.20548 3.93609 4.44984 5.66807 4.44984 7.48204H5.94984ZM7.55622 3.80112C9.77895 1.73296 13.2217 1.73296 15.4444 3.80112L16.4662 2.70296C13.6677 0.0990131 9.33299 0.0990131 6.53443 2.70296L7.55622 3.80112ZM15.4452 3.80182C16.469 4.75182 17.0508 6.08536 17.0508 7.48204H18.5508C18.5508 5.66807 17.7952 3.93609 16.4655 2.70226L15.4452 3.80182ZM17.0508 7.48204C17.0508 8.87871 16.469 10.2123 15.4452 11.1623L16.4655 12.2618C17.7952 11.028 18.5508 9.296 18.5508 7.48204H17.0508ZM15.439 11.1681L10.984 15.3966L12.0166 16.4845L16.4716 12.256L15.439 11.1681ZM11.5134 9.00015C10.7906 8.98754 10.2137 8.39339 10.2224 7.6705L8.72253 7.65241C8.70386 9.20052 9.93926 10.4729 11.4872 10.4999L11.5134 9.00015ZM10.2224 7.6705C10.2311 6.94761 10.8222 6.36755 11.5451 6.37238L11.5551 4.87242C10.0069 4.86207 8.74121 6.1043 8.72253 7.65241L10.2224 7.6705ZM11.5451 6.37238C12.268 6.37721 12.8513 6.96512 12.8503 7.68806L14.3503 7.69001C14.3523 6.1418 13.1033 4.88276 11.5551 4.87242L11.5451 6.37238ZM12.8504 7.6815C12.843 8.41641 12.2418 9.00646 11.5068 9.00007L11.4938 10.5C13.0563 10.5136 14.3346 9.25907 14.3503 7.69658L12.8504 7.6815Z" fill="#121212"/>
</g>
</svg>
