<svg width="14" height="16" viewBox="0 0 14 16" fill="none" xmlns="http://www.w3.org/2000/svg">
<path id="Vector" d="M6.89333 15.0833C6.89333 15.0833 1 10.8333 1 6.58329C1 3.04163 3.94667 0.916626 6.89333 0.916626C9.84 0.916626 12.7867 3.04163 12.7867 6.58329C12.7867 10.8333 6.89333 15.0833 6.89333 15.0833ZM6.89333 8.70829C7.47946 8.70829 8.04158 8.48441 8.45604 8.08589C8.87049 7.68738 9.10333 7.14688 9.10333 6.58329C9.10333 6.01971 8.87049 5.4792 8.45604 5.08069C8.04158 4.68217 7.47946 4.45829 6.89333 4.45829C6.3072 4.45829 5.74508 4.68217 5.33063 5.08069C4.91617 5.4792 4.68333 6.01971 4.68333 6.58329C4.68333 7.14688 4.91617 7.68738 5.33063 8.08589C5.74508 8.48441 6.3072 8.70829 6.89333 8.70829V8.70829Z" stroke="#737373"/>
</svg>
