<svg width="14" height="15" viewBox="0 0 14 15" fill="none" xmlns="http://www.w3.org/2000/svg">
<path d="M4.21059 10.6839C4.48521 10.655 4.68439 10.4089 4.65546 10.1343C4.62652 9.85969 4.38045 9.66051 4.10582 9.68944L4.21059 10.6839ZM1.17537 11.1244L0.933804 10.6867C0.921931 10.6932 0.910329 10.7003 0.899028 10.7077L1.17537 11.1244ZM0.775707 12.4279L0.388874 12.7447C0.405696 12.7653 0.424128 12.7844 0.443994 12.8021L0.775707 12.4279ZM3.13612 13.5197L3.24706 13.0322C3.23362 13.0291 3.22006 13.0266 3.20642 13.0247L3.13612 13.5197ZM6.99987 13.9166L7.00948 13.4167C7.00312 13.4166 6.99675 13.4166 6.99038 13.4167L6.99987 13.9166ZM10.8636 13.5206L10.7933 13.0256C10.7797 13.0275 10.7662 13.03 10.7528 13.033L10.8636 13.5206ZM13.224 12.4289L13.5558 12.803C13.5756 12.7854 13.5941 12.7662 13.6109 12.7457L13.224 12.4289ZM12.8244 11.1254L13.1007 10.7087C13.0895 10.7012 13.0779 10.6942 13.0661 10.6877L12.8244 11.1254ZM9.89405 9.68946C9.61944 9.66045 9.37331 9.85956 9.34431 10.1342C9.3153 10.4088 9.51441 10.6549 9.78903 10.6839L9.89405 9.68946ZM6.99987 9.90803L6.65566 10.2707C6.8486 10.4538 7.15115 10.4538 7.34409 10.2707L6.99987 9.90803ZM4.27737 7.32394L4.62161 6.96127L4.61747 6.95742L4.27737 7.32394ZM4.27737 2.15394L4.61747 2.52046L4.61797 2.51999L4.27737 2.15394ZM9.72237 2.15394L9.38178 2.51999L9.38228 2.52046L9.72237 2.15394ZM9.72237 7.32394L9.38226 6.9574L9.37816 6.96129L9.72237 7.32394ZM6.99987 6.12494L6.99115 6.62488L6.99553 6.62492L6.99987 6.12494ZM5.76063 4.84859L6.2606 4.85462L5.76063 4.84859ZM7.0303 3.6025L7.03364 3.10251L7.0303 3.6025ZM8.28321 4.86544L8.7832 4.87047L8.78321 4.86609L8.28321 4.86544ZM4.10582 9.68944C2.99251 9.80673 1.91396 10.1458 0.933804 10.6867L1.41694 11.5622C2.28018 11.0859 3.23007 10.7872 4.21059 10.6839L4.10582 9.68944ZM0.899028 10.7077C0.546624 10.9415 0.249228 11.2407 0.133137 11.6193C0.0064353 12.0325 0.128249 12.4265 0.388874 12.7447L1.16254 12.1111C1.06658 11.994 1.08069 11.9402 1.08919 11.9125C1.10831 11.8501 1.18904 11.7153 1.45172 11.5411L0.899028 10.7077ZM0.443994 12.8021C1.18007 13.4547 2.09186 13.8764 3.06583 14.0147L3.20642 13.0247C2.42667 12.9139 1.69671 12.5763 1.10742 12.0538L0.443994 12.8021ZM3.02519 14.0072C4.33177 14.3045 5.66963 14.442 7.00937 14.4165L6.99038 13.4167C5.73164 13.4406 4.47465 13.3115 3.24706 13.0322L3.02519 14.0072ZM6.99026 14.4165C8.32996 14.4423 9.66782 14.3052 10.9744 14.0082L10.7528 13.033C9.52518 13.3121 8.26819 13.4409 7.00948 13.4167L6.99026 14.4165ZM10.9339 14.0156C11.9079 13.8773 12.8197 13.4556 13.5558 12.803L12.8923 12.0547C12.303 12.5772 11.5731 12.9149 10.7933 13.0256L10.9339 14.0156ZM13.6109 12.7457C13.8715 12.4274 13.9933 12.0334 13.8666 11.6202C13.7505 11.2416 13.4531 10.9424 13.1007 10.7087L12.548 11.5421C12.8107 11.7163 12.8914 11.851 12.9106 11.9134C12.9191 11.9411 12.9332 11.9949 12.8372 12.1121L13.6109 12.7457ZM13.0661 10.6877C12.086 10.1465 11.0074 9.80704 9.89405 9.68946L9.78903 10.6839C10.7696 10.7875 11.7195 11.0864 12.5827 11.5631L13.0661 10.6877ZM7.34409 9.54537L4.62159 6.96129L3.93316 7.68659L6.65566 10.2707L7.34409 9.54537ZM4.61747 6.95742C4.0003 6.38475 3.64958 5.58087 3.64958 4.73894H2.64958C2.64958 5.85907 3.11618 6.92857 3.93728 7.69046L4.61747 6.95742ZM3.64958 4.73894C3.64958 3.89701 4.0003 3.09313 4.61747 2.52046L3.93728 1.78742C3.11618 2.54932 2.64958 3.61882 2.64958 4.73894H3.64958ZM4.61797 2.51999C5.96031 1.271 8.03944 1.271 9.38178 2.51999L10.063 1.78789C8.33674 0.181706 5.66301 0.181706 3.93678 1.78789L4.61797 2.51999ZM9.38228 2.52046C9.99945 3.09313 10.3502 3.89701 10.3502 4.73894H11.3502C11.3502 3.61882 10.8836 2.54932 10.0625 1.78742L9.38228 2.52046ZM10.3502 4.73894C10.3502 5.58087 9.99945 6.38475 9.38228 6.95742L10.0625 7.69046C10.8836 6.92857 11.3502 5.85907 11.3502 4.73894H10.3502ZM9.37816 6.96129L6.65566 9.54537L7.34409 10.2707L10.0666 7.68659L9.37816 6.96129ZM7.0086 5.62502C6.58979 5.61771 6.25554 5.27346 6.2606 4.85462L5.26067 4.84255C5.24898 5.81154 6.02224 6.60796 6.99115 6.62487L7.0086 5.62502ZM6.2606 4.85462C6.26565 4.43577 6.6081 4.09969 7.02696 4.10248L7.03364 3.10251C6.06461 3.09603 5.27236 3.87357 5.26067 4.84255L6.2606 4.85462ZM7.02696 4.10248C7.44583 4.10528 7.78375 4.44592 7.78321 4.86479L8.78321 4.86609C8.78447 3.89704 8.00268 3.10898 7.03364 3.10251L7.02696 4.10248ZM7.78323 4.86042C7.77895 5.28654 7.43035 5.62867 7.00422 5.62496L6.99553 6.62492C7.97339 6.63343 8.77336 5.84831 8.78318 4.87047L7.78323 4.86042Z" fill="#121212"/>
</svg>
