<svg width="20" height="20" viewBox="0 0 20 20" fill="none" xmlns="http://www.w3.org/2000/svg">
<path fill-rule="evenodd" clip-rule="evenodd" d="M13.3334 7.5C13.3334 9.34095 11.841 10.8333 10.0001 10.8333C8.15913 10.8333 6.66675 9.34095 6.66675 7.5C6.66675 5.65905 8.15913 4.16667 10.0001 4.16667C10.8841 4.16667 11.732 4.51786 12.3571 5.14298C12.9822 5.7681 13.3334 6.61595 13.3334 7.5Z" stroke="#F2BE22" stroke-width="1.3" stroke-linecap="round" stroke-linejoin="round"/>
<path d="M10.65 10.8333C10.65 10.4743 10.359 10.1833 10 10.1833C9.64102 10.1833 9.35 10.4743 9.35 10.8333H10.65ZM9.35 15.8333C9.35 16.1923 9.64102 16.4833 10 16.4833C10.359 16.4833 10.65 16.1923 10.65 15.8333H9.35ZM9.93107 5.53116C9.57411 5.56923 9.31559 5.88946 9.35367 6.24643C9.39174 6.60339 9.71197 6.8619 10.0689 6.82383L9.93107 5.53116ZM11.0442 7.39729C11.1844 7.72774 11.566 7.88192 11.8965 7.74166C12.2269 7.6014 12.3811 7.21981 12.2408 6.88936L11.0442 7.39729ZM9.35 10.8333V15.8333H10.65V10.8333H9.35ZM10.0689 6.82383C10.4848 6.77947 10.8808 7.01231 11.0442 7.39729L12.2408 6.88936C11.8538 5.97756 10.916 5.42611 9.93107 5.53116L10.0689 6.82383Z" fill="#F2BE22"/>
</svg>
