<svg width="20" height="20" viewBox="0 0 20 20" fill="none" xmlns="http://www.w3.org/2000/svg">
<path fill-rule="evenodd" clip-rule="evenodd" d="M14.8201 8.71583C15.7139 10.5125 16.0339 12.5404 15.7367 14.525L13.6334 14.6083L4.16675 15L9.23008 6.81833L10.3551 5C12.1971 5.73827 13.7595 7.03851 14.8201 8.71583Z" stroke="#F2BE22" stroke-width="1.3" stroke-linecap="round" stroke-linejoin="round"/>
<path d="M13.6333 14.6108C13.68 12.9996 13.2883 11.406 12.5 10C11.739 8.64675 10.6036 7.54197 9.22998 6.81833" stroke="#F2BE22" stroke-width="1.3" stroke-linecap="round" stroke-linejoin="round"/>
<path d="M11.4753 12.6917C11.2455 12.6917 11.0586 12.5047 11.0586 12.275C11.0586 12.0452 11.2455 11.8583 11.4753 11.8583C11.705 11.8583 11.8919 12.0452 11.8919 12.275C11.8919 12.5047 11.705 12.6917 11.4753 12.6917Z" fill="#F2BE22"/>
<path d="M11.4752 11.4417C11.9354 11.4417 12.3085 11.8148 12.3085 12.275C12.3085 12.7352 11.9354 13.1083 11.4752 13.1083C11.0149 13.1083 10.6418 12.7352 10.6418 12.275C10.6418 11.8148 11.0149 11.4417 11.4752 11.4417Z" fill="#F2BE22"/>
<path d="M7.73844 13.1658C7.50869 13.1658 7.32178 12.9789 7.32178 12.7492C7.32178 12.5194 7.50869 12.3325 7.73844 12.3325C7.96819 12.3325 8.15511 12.5194 8.15511 12.7492C8.15511 12.9789 7.96819 13.1658 7.73844 13.1658Z" fill="#F2BE22"/>
<path d="M7.73836 11.9158C8.1986 11.9158 8.5717 12.2889 8.5717 12.7492C8.5717 13.2094 8.1986 13.5825 7.73836 13.5825C7.27813 13.5825 6.90503 13.2094 6.90503 12.7492C6.90503 12.2889 7.27813 11.9158 7.73836 11.9158Z" fill="#F2BE22"/>
<path d="M9.80851 10.1917C9.57876 10.1917 9.39185 10.0048 9.39185 9.775C9.39185 9.54525 9.57876 9.35833 9.80851 9.35833C10.0383 9.35833 10.2252 9.54525 10.2252 9.775C10.2252 10.0048 10.0383 10.1917 9.80851 10.1917Z" fill="#F2BE22"/>
<path d="M9.80843 8.94167C10.2687 8.94167 10.6418 9.31477 10.6418 9.775C10.6418 10.2352 10.2687 10.6083 9.80843 10.6083C9.3482 10.6083 8.9751 10.2352 8.9751 9.775C8.9751 9.31477 9.3482 8.94167 9.80843 8.94167Z" fill="#F2BE22"/>
</svg>
