<svg width="24" height="25" viewBox="0 0 24 25" fill="none" xmlns="http://www.w3.org/2000/svg">
<path fill-rule="evenodd" clip-rule="evenodd" d="M5 12.5002C5.00024 9.16068 7.35944 6.28639 10.6348 5.6351C13.9102 4.98382 17.1895 6.73693 18.4673 9.82231C19.7451 12.9077 18.6655 16.466 15.8887 18.3212C13.1119 20.1764 9.41127 19.8117 7.05 17.4502C5.73728 16.1373 4.99987 14.3568 5 12.5002Z" stroke="#F2BE22" stroke-width="1.5" stroke-linecap="round" stroke-linejoin="round"/>
<path d="M9.375 11.7502C8.96079 11.7502 8.625 12.086 8.625 12.5002C8.625 12.9144 8.96079 13.2502 9.375 13.2502V11.7502ZM12 13.2502C12.4142 13.2502 12.75 12.9144 12.75 12.5002C12.75 12.086 12.4142 11.7502 12 11.7502V13.2502ZM12 11.7502C11.5858 11.7502 11.25 12.086 11.25 12.5002C11.25 12.9144 11.5858 13.2502 12 13.2502V11.7502ZM14.625 13.2502C15.0392 13.2502 15.375 12.9144 15.375 12.5002C15.375 12.086 15.0392 11.7502 14.625 11.7502V13.2502ZM12.75 12.5002C12.75 12.086 12.4142 11.7502 12 11.7502C11.5858 11.7502 11.25 12.086 11.25 12.5002H12.75ZM11.25 15.1252C11.25 15.5394 11.5858 15.8752 12 15.8752C12.4142 15.8752 12.75 15.5394 12.75 15.1252H11.25ZM11.25 12.5002C11.25 12.9144 11.5858 13.2502 12 13.2502C12.4142 13.2502 12.75 12.9144 12.75 12.5002H11.25ZM12.75 9.87518C12.75 9.46097 12.4142 9.12518 12 9.12518C11.5858 9.12518 11.25 9.46097 11.25 9.87518H12.75ZM9.375 13.2502H12V11.7502H9.375V13.2502ZM12 13.2502H14.625V11.7502H12V13.2502ZM11.25 12.5002V15.1252H12.75V12.5002H11.25ZM12.75 12.5002V9.87518H11.25V12.5002H12.75Z" fill="#F2BE22"/>
</svg>
