<svg width="74" height="73" viewBox="0 0 74 73" fill="none" xmlns="http://www.w3.org/2000/svg">
<g id="Vector">
<path id="Vector-7" d="M35.7395 29.3757C35.7395 27.9949 34.6202 26.8757 33.2395 26.8757C31.8588 26.8757 30.7395 27.9949 30.7395 29.3757H35.7395ZM33.2395 40.8258H30.7395C30.7395 42.2065 31.8588 43.3258 33.2395 43.3258V40.8258ZM44.5205 43.3258C45.9012 43.3258 47.0205 42.2065 47.0205 40.8258C47.0205 39.4451 45.9012 38.3258 44.5205 38.3258V43.3258ZM63.9639 71.7842C64.7653 72.9086 66.3264 73.1705 67.4508 72.3692C68.5751 71.5679 68.837 70.0068 68.0357 68.8824L63.9639 71.7842ZM57.7021 54.3824C56.9008 53.258 55.3397 52.9961 54.2153 53.7974C53.0909 54.5988 52.829 56.1598 53.6303 57.2842L57.7021 54.3824ZM60.9015 0.176214C59.5261 0.0556114 58.3133 1.07285 58.1927 2.44829C58.0721 3.82372 59.0894 5.0365 60.4648 5.1571L60.9015 0.176214ZM68.3817 12.2484C68.6525 13.6023 69.9695 14.4804 71.3234 14.2096C72.6773 13.9389 73.5554 12.6218 73.2846 11.2679L68.3817 12.2484ZM18.3287 55.8333L20.1211 54.0906L20.1166 54.086L18.3287 55.8333ZM10.6872 37.0075L13.1872 37.0143C13.1872 37.006 13.1872 36.9976 13.1871 36.9892L10.6872 37.0075ZM36.9998 10.2985L37.0189 7.79856C37.0062 7.79847 36.9935 7.79847 36.9808 7.79856L36.9998 10.2985ZM63.3125 37.0075L60.8126 36.9892C60.8125 37.0015 60.8125 37.0139 60.8126 37.0262L63.3125 37.0075ZM36.9998 63.7213L36.9998 66.2213C37.0062 66.2213 37.0125 66.2213 37.0189 66.2213L36.9998 63.7213ZM20.3649 57.2838C21.166 56.1592 20.9037 54.5982 19.7791 53.7971C18.6546 52.996 17.0935 53.2583 16.2925 54.3829L20.3649 57.2838ZM5.96363 68.8829C5.16256 70.0074 5.42481 71.5685 6.54938 72.3695C7.67395 73.1706 9.23498 72.9084 10.0361 71.7838L5.96363 68.8829ZM13.5349 5.1571C14.9103 5.0365 15.9276 3.82372 15.807 2.44829C15.6863 1.07285 14.4736 0.055609 13.0981 0.176212L13.5349 5.1571ZM0.715041 11.2679C0.444293 12.6218 1.32237 13.9389 2.67627 14.2096C4.03018 14.4804 5.34722 13.6023 5.61797 12.2484L0.715041 11.2679ZM30.7395 29.3757V40.8258H35.7395V29.3757H30.7395ZM33.2395 43.3258H44.5205V38.3258H33.2395V43.3258ZM68.0357 68.8824L57.7021 54.3824L53.6303 57.2842L63.9639 71.7842L68.0357 68.8824ZM60.4648 5.1571C64.3855 5.50089 67.6099 8.38902 68.3817 12.2484L73.2846 11.2679C72.0775 5.23136 67.0341 0.713938 60.9015 0.176214L60.4648 5.1571ZM20.1166 54.086C15.6581 49.5239 13.1697 43.3933 13.1872 37.0143L8.18718 37.0006C8.16613 44.6905 11.166 52.081 16.5407 57.5807L20.1166 54.086ZM13.1871 36.9892C13.09 23.729 23.7587 12.8996 37.0189 12.7984L36.9808 7.79856C20.9598 7.92079 8.06996 21.0048 8.18724 37.0258L13.1871 36.9892ZM36.9808 12.7984C50.241 12.8996 60.9096 23.729 60.8126 36.9892L65.8124 37.0258C65.9297 21.0048 53.0399 7.92079 37.0189 7.79856L36.9808 12.7984ZM60.8126 37.0262C60.9121 50.2882 50.2427 61.1202 36.9808 61.2214L37.0189 66.2213C53.0419 66.099 65.9327 53.0118 65.8124 36.9887L60.8126 37.0262ZM36.9999 61.2213C30.6415 61.2213 24.5535 58.6493 20.1211 54.0906L16.5362 57.5761C21.9101 63.103 29.291 66.2213 36.9998 66.2213L36.9999 61.2213ZM16.2925 54.3829L5.96363 68.8829L10.0361 71.7838L20.3649 57.2838L16.2925 54.3829ZM13.0981 0.176212C6.96558 0.713936 1.9222 5.23136 0.715041 11.2679L5.61797 12.2484C6.38975 8.38902 9.61414 5.50089 13.5349 5.1571L13.0981 0.176212Z" fill="white"/>
</g>
</svg>
