<svg width="20" height="21" viewBox="0 0 20 21" fill="none" xmlns="http://www.w3.org/2000/svg">
<path d="M5.30304 14.1363C5.01015 14.4292 5.01015 14.9041 5.30304 15.197C5.59594 15.4899 6.07081 15.4899 6.3637 15.197L5.30304 14.1363ZM10.5304 11.0303C10.8233 10.7374 10.8233 10.2626 10.5304 9.96966C10.2375 9.67677 9.7626 9.67677 9.46971 9.96966L10.5304 11.0303ZM9.46971 9.96966C9.17682 10.2626 9.17682 10.7374 9.46971 11.0303C9.7626 11.3232 10.2375 11.3232 10.5304 11.0303L9.46971 9.96966ZM14.697 6.86366C14.9899 6.57077 14.9899 6.09589 14.697 5.803C14.4041 5.5101 13.9293 5.5101 13.6364 5.803L14.697 6.86366ZM10.5304 9.96966C10.2375 9.67677 9.7626 9.67677 9.46971 9.96966C9.17682 10.2626 9.17682 10.7374 9.46971 11.0303L10.5304 9.96966ZM13.6364 15.197C13.9293 15.4899 14.4041 15.4899 14.697 15.197C14.9899 14.9041 14.9899 14.4292 14.697 14.1363L13.6364 15.197ZM9.46971 11.0303C9.7626 11.3232 10.2375 11.3232 10.5304 11.0303C10.8233 10.7374 10.8233 10.2626 10.5304 9.96966L9.46971 11.0303ZM6.3637 5.803C6.07081 5.5101 5.59594 5.5101 5.30304 5.803C5.01015 6.09589 5.01015 6.57077 5.30304 6.86366L6.3637 5.803ZM6.3637 15.197L10.5304 11.0303L9.46971 9.96966L5.30304 14.1363L6.3637 15.197ZM10.5304 11.0303L14.697 6.86366L13.6364 5.803L9.46971 9.96966L10.5304 11.0303ZM9.46971 11.0303L13.6364 15.197L14.697 14.1363L10.5304 9.96966L9.46971 11.0303ZM10.5304 9.96966L6.3637 5.803L5.30304 6.86366L9.46971 11.0303L10.5304 9.96966Z" fill="#999999"/>
</svg>
